# xmcd CD database file
#
# Track frame offsets:
#	150
#	20101
#	40893
#	60221
#	84905
#	113460
#	137736
#	155778
#	170428
#	191849
#
# Disc length: 2918 seconds
#
# Revision: 0
# Processed by: cddbd v1.5.2PL0 Copyright (c) Steve Scherf et al.
# Submitted via: CDex 1.51
#
DISCID=7c0b640a
DTITLE=CD Woodbury Band - Monday Night!
DYEAR=2013
DGENRE=Blues
TTITLE0=The CD Woodbury Band - These Blues Keep Me Right Here
TTITLE1=The CD Woodbury Band - Mean Jenny
TTITLE2=The CD Woodbury Band - Been So Long
TTITLE3=The CD Woodbury Band - Monday Night
TTITLE4=The CD Woodbury Band - Pawn Shop
TTITLE5=The CD Woodbury Band - Pleasure's All Mine
TTITLE6=The CD Woodbury Band - Ring-A-Ding
TTITLE7=The CD Woodbury Band - Burn the Bridge
TTITLE8=The CD Woodbury Band - Two Wheels
TTITLE9=The CD Woodbury Band - SauBall Blues
EXTD=YEAR: 2013
EXTT0=
EXTT1=
EXTT2=
EXTT3=
EXTT4=
EXTT5=
EXTT6=
EXTT7=
EXTT8=
EXTT9=
PLAYORDER=
